<svg width="18" height="20" viewBox="0 0 27 29" fill="none" xmlns="http://www.w3.org/2000/svg">
<path d="M24.8271 1.83038C23.9126 0.866384 22.7534 0.255384 21.4756 0.0633844C19.6154 -0.214616 17.7808 0.430384 16.4537 1.83038C16.0828 2.22138 16.0828 2.85438 16.4537 3.24538C16.4736 3.26638 16.4992 3.27338 16.5201 3.29138C16.5371 3.31238 16.5438 3.33938 16.5637 3.36038L19.2995 6.24438L5.16898 21.1404L2.99382 18.8474L14.9814 6.21038C15.3523 5.81938 15.3523 5.18738 14.9814 4.79638C14.6105 4.40538 14.011 4.40538 13.6401 4.79638L0.98371 18.1384C0.982762 18.1394 0.981813 18.1394 0.980864 18.1404L0.276995 18.8824C0.187825 18.9764 0.118576 19.0884 0.0711459 19.2094C0.0246639 19.3314 0 19.4604 0 19.5894V27.0024C0 27.5554 0.424978 28.0024 0.948612 28.0024H7.98162C8.233 28.0024 8.4749 27.8974 8.65229 27.7094L24.8271 10.6584C27.135 8.22438 27.135 4.26438 24.8271 1.83038ZM21.2091 2.04438C22.0761 2.17438 22.8634 2.58938 23.4848 3.24438C24.8214 4.65438 25.0082 6.81138 24.0672 8.44338L21.3106 5.53638L18.5444 2.62038C19.3327 2.11138 20.2652 1.90338 21.2091 2.04438ZM1.89722 26.0024V20.5204L4.49642 23.2604C4.49737 23.2614 4.49737 23.2624 4.49737 23.2624L4.49926 23.2634L7.09751 26.0024H1.89722ZM6.51032 22.5544L20.6399 7.65838L22.8151 9.95138L8.68454 24.8474L6.51032 22.5544Z" fill="black"/>
</svg>
